<mxfile host="app.diagrams.net" modified="2024-07-08T21:02:39.865Z" agent="Mozilla/5.0 (Windows NT 10.0; Win64; x64) AppleWebKit/537.36 (KHTML, like Gecko) Chrome/126.0.0.0 Safari/537.36" version="24.6.4" etag="mn-jXe3sP1xov5gQ7SUr" type="github">
  <diagram name="Page-1" id="CcO2fKFIoy3oirRv22AH">
    <mxGraphModel>
      <root>
        <mxCell id="0" />
        <mxCell id="1" parent="0" />
      </root>
    </mxGraphModel>
  </diagram>
</mxfile>
